<?xml version="1.0" encoding="utf-8"?>
<svg xmlns="http://www.w3.org/2000/svg" style="margin: auto; background: rgb(84, 222, 84); display: block; shape-rendering: auto;" width="165" height="110" preserveAspectRatio="xMidYMid">
<style type="text/css">
  text {
    text-anchor: middle; font-size: 59px; opacity: 0;
  }
</style>
<g transform="translate(82.5,55)">
  <g transform="translate(-5,4)"><g class="path" style="transform-origin: -52.245px -4.33005px; transform: matrix(1, 0, 0, 1, 0, 0); animation: 20s linear -10.56s infinite normal forwards running tremble-fc19520c-0647-4f84-aa36-fdcfc928aad2;"><path d="M36.64-39.12L35.81-34.57L35.81-34.57Q33.22-35.11 30.30-35.58L30.30-35.58L30.30-35.58Q27.38-36.05 23.54-36.17L23.54-36.17L23.54-36.17Q19.65-36.11 16.82-34.99L16.82-34.99L16.82-34.99Q13.98-33.87 12.18-31.77L12.18-31.77L12.18-31.77Q10.38-29.68 9.50-26.79L9.50-26.79L9.50-26.79Q8.61-23.90 8.61-20.41L8.61-20.41L8.61-20.41Q8.61-15.93 9.76-12.74L9.76-12.74L9.76-12.74Q10.92-9.56 12.95-7.52L12.95-7.52L12.95-7.52Q14.99-5.49 17.70-4.54L17.70-4.54L17.70-4.54Q20.41-3.60 23.54-3.60L23.54-3.60L23.54-3.60Q25.55-3.60 27.17-3.84L27.17-3.84L27.17-3.84Q28.79-4.07 30.00-4.40L30.00-4.40L30.00-4.40Q31.21-4.72 32.21-5.13L32.21-5.13L32.21-15.93L24.84-15.93L24.84-20.36L37.23-20.36L37.23-2.71L37.23-2.71Q35.16-1.36 31.54-0.27L31.54-0.27L31.54-0.27Q27.91 0.83 23.54 0.77L23.54 0.77L23.54 0.77Q19.53 0.77 15.84-0.18L15.84-0.18L15.84-0.18Q12.15-1.12 9.29-3.51L9.29-3.51L9.29-3.51Q6.43-5.90 4.72-10.03L4.72-10.03L4.72-10.03Q3.01-14.16 3.01-20.47L3.01-20.47L3.01-20.47Q3.01-25.61 4.60-29.41L4.60-29.41L4.60-29.41Q6.20-33.22 8.94-35.72L8.94-35.72L8.94-35.72Q11.68-38.23 15.31-39.50L15.31-39.50L15.31-39.50Q18.94-40.77 23.01-40.77L23.01-40.77L23.01-40.77Q25.67-40.77 28.14-40.50L28.14-40.50L28.14-40.50Q30.62-40.24 32.69-39.91L32.69-39.91L32.69-39.91Q34.75-39.59 36.64-39.12L36.64-39.12" fill="#eeeeee" stroke="none" stroke-width="none" transform="translate(-72.364990234375,15.668398010253908)" style="fill: rgb(238, 238, 238);"></path></g><g class="path" style="transform-origin: -20.06px 0.529114px; transform: matrix(1, 0, 0, 1, 0, 0); animation: 20s linear -7.92s infinite normal forwards running tremble-fc19520c-0647-4f84-aa36-fdcfc928aad2;"><path d="M45.14 0L45.14-24.90L45.14-24.90Q45.14-26.26 44.84-29.15L44.84-29.15L49.21-29.74L49.68-25.43L49.74-25.43L49.74-25.43Q50.80-26.79 51.80-27.79L51.80-27.79L51.80-27.79Q52.81-28.79 53.90-29.53L53.90-29.53L53.90-29.53Q54.99-30.27 55.99-30.27L55.99-30.27L55.99-30.27Q57.35-30.33 59.77-29.97L59.77-29.97L58.71-25.43L58.71-25.43Q56.76-25.78 55.99-25.72L55.99-25.72L55.99-25.72Q54.99-25.72 53.87-24.78L53.87-24.78L53.87-24.78Q52.75-23.84 51.92-22.77L51.92-22.77L51.92-22.77Q50.86-21.48 49.86-19.82L49.86-19.82L49.86 0L45.14 0" fill="#eeeeee" stroke="none" stroke-width="none" transform="translate(-72.364990234375,15.668398010253908)" style="fill: rgb(238, 238, 238);"></path></g><g class="path" style="transform-origin: 2.595px 0.918404px; transform: matrix(1, 0, 0, 1, 0, 0); animation: 20s linear -5.28s infinite normal forwards running tremble-fc19520c-0647-4f84-aa36-fdcfc928aad2;"><path d="M85.14-4.66L86.02-0.71L86.02-0.71Q84.67-0.30 83.22 0L83.22 0L83.22 0Q81.77 0.30 80.03 0.53L80.03 0.53L80.03 0.53Q78.29 0.77 76.41 0.77L76.41 0.77L76.41 0.77Q73.46 0.77 70.92-0.06L70.92-0.06L70.92-0.06Q68.38-0.89 66.49-2.71L66.49-2.71L66.49-2.71Q64.61-4.54 63.51-7.46L63.51-7.46L63.51-7.46Q62.42-10.38 62.42-14.63L62.42-14.63L62.42-14.63Q62.42-18.47 63.48-21.39L63.48-21.39L63.48-21.39Q64.55-24.31 66.40-26.28L66.40-26.28L66.40-26.28Q68.26-28.26 70.77-29.26L70.77-29.26L70.77-29.26Q73.28-30.27 76.23-30.27L76.23-30.27L76.23-30.27Q79.12-30.27 81.24-29.15L81.24-29.15L81.24-29.15Q83.37-28.03 84.75-26.11L84.75-26.11L84.75-26.11Q86.14-24.19 86.82-21.62L86.82-21.62L86.82-21.62Q87.50-19.06 87.50-16.23L87.50-16.23L86.61-13.63L67.56-13.63L67.56-13.63Q67.56-11.80 68.03-9.97L68.03-9.97L68.03-9.97Q68.50-8.14 69.65-6.67L69.65-6.67L69.65-6.67Q70.80-5.19 72.66-4.28L72.66-4.28L72.66-4.28Q74.52-3.36 77.29-3.36L77.29-3.36L77.29-3.36Q79.06-3.36 80.54-3.57L80.54-3.57L80.54-3.57Q82.01-3.78 83.10-4.04L83.10-4.04L83.10-4.04Q84.19-4.31 85.14-4.66L85.14-4.66zM67.73-17.41L82.60-17.41L82.60-17.41Q82.60-17.82 82.42-19.23L82.42-19.23L82.42-19.23Q82.25-20.65 81.60-22.18L81.60-22.18L81.60-22.18Q80.95-23.72 79.59-24.93L79.59-24.93L79.59-24.93Q78.23-26.14 75.99-26.14L75.99-26.14L75.99-26.14Q73.51-26.14 71.92-25.10L71.92-25.10L71.92-25.10Q70.33-24.07 69.38-22.66L69.38-22.66L69.38-22.66Q68.44-21.24 68.09-19.77L68.09-19.77L68.09-19.77Q67.73-18.29 67.73-17.41L67.73-17.41" fill="#eeeeee" stroke="none" stroke-width="none" transform="translate(-72.364990234375,15.668398010253908)" style="fill: rgb(238, 238, 238);"></path></g><g class="path" style="transform-origin: 32.45px 0.918404px; transform: matrix(1, 0, 0, 1, 0, 0); animation: 20s linear -2.64s infinite normal forwards running tremble-fc19520c-0647-4f84-aa36-fdcfc928aad2;"><path d="M114.99-4.66L115.88-0.71L115.88-0.71Q114.52-0.30 113.07 0L113.07 0L113.07 0Q111.63 0.30 109.89 0.53L109.89 0.53L109.89 0.53Q108.15 0.77 106.26 0.77L106.26 0.77L106.26 0.77Q103.31 0.77 100.77-0.06L100.77-0.06L100.77-0.06Q98.24-0.89 96.35-2.71L96.35-2.71L96.35-2.71Q94.46-4.54 93.37-7.46L93.37-7.46L93.37-7.46Q92.28-10.38 92.28-14.63L92.28-14.63L92.28-14.63Q92.28-18.47 93.34-21.39L93.34-21.39L93.34-21.39Q94.40-24.31 96.26-26.28L96.26-26.28L96.26-26.28Q98.12-28.26 100.62-29.26L100.62-29.26L100.62-29.26Q103.13-30.27 106.08-30.27L106.08-30.27L106.08-30.27Q108.97-30.27 111.10-29.15L111.10-29.15L111.10-29.15Q113.22-28.03 114.61-26.11L114.61-26.11L114.61-26.11Q115.99-24.19 116.67-21.62L116.67-21.62L116.67-21.62Q117.35-19.06 117.35-16.23L117.35-16.23L116.47-13.63L97.41-13.63L97.41-13.63Q97.41-11.80 97.88-9.97L97.88-9.97L97.88-9.97Q98.35-8.14 99.50-6.67L99.50-6.67L99.50-6.67Q100.65-5.19 102.51-4.28L102.51-4.28L102.51-4.28Q104.37-3.36 107.14-3.36L107.14-3.36L107.14-3.36Q108.91-3.36 110.39-3.57L110.39-3.57L110.39-3.57Q111.86-3.78 112.96-4.04L112.96-4.04L112.96-4.04Q114.05-4.31 114.99-4.66L114.99-4.66zM97.59-17.41L112.45-17.41L112.45-17.41Q112.45-17.82 112.28-19.23L112.28-19.23L112.28-19.23Q112.10-20.65 111.45-22.18L111.45-22.18L111.45-22.18Q110.80-23.72 109.45-24.93L109.45-24.93L109.45-24.93Q108.09-26.14 105.85-26.14L105.85-26.14L105.85-26.14Q103.37-26.14 101.78-25.10L101.78-25.10L101.78-25.10Q100.18-24.07 99.24-22.66L99.24-22.66L99.24-22.66Q98.29-21.24 97.94-19.77L97.94-19.77L97.94-19.77Q97.59-18.29 97.59-17.41L97.59-17.41" fill="#eeeeee" stroke="none" stroke-width="none" transform="translate(-72.364990234375,15.668398010253908)" style="fill: rgb(238, 238, 238);"></path></g><g class="path" style="transform-origin: 63.28px 0.533401px; transform: matrix(1, 0, 0, 1, 0, 0); animation: 20s linear 0s infinite normal forwards running tremble-fc19520c-0647-4f84-aa36-fdcfc928aad2;"><path d="M123.84 0L123.84-23.78L123.84-23.78Q123.90-25.02 123.55-29.15L123.55-29.15L127.91-29.74L128.56-25.96L128.56-25.96Q130.33-27.14 132.07-28.03L132.07-28.03L132.07-28.03Q133.81-28.91 135.64-29.59L135.64-29.59L135.64-29.59Q137.47-30.27 139.18-30.27L139.18-30.27L139.18-30.27Q141.60-30.27 143.22-29.71L143.22-29.71L143.22-29.71Q144.84-29.15 145.85-27.85L145.85-27.85L145.85-27.85Q146.85-26.55 147.29-24.43L147.29-24.43L147.29-24.43Q147.74-22.30 147.74-19.12L147.74-19.12L147.74 0L143.02 0L143.02-18.59L143.02-18.59Q143.02-20.36 142.96-21.74L142.96-21.74L142.96-21.74Q142.90-23.13 142.46-24.10L142.46-24.10L142.46-24.10Q142.01-25.08 141.10-25.61L141.10-25.61L141.10-25.61Q140.18-26.14 138.53-26.14L138.53-26.14L138.53-26.14Q137.00-26.14 135.29-25.46L135.29-25.46L135.29-25.46Q133.58-24.78 131.92-23.90L131.92-23.90L131.92-23.90Q130.27-23.01 128.56-21.83L128.56-21.83L128.56 0L123.84 0" fill="#eeeeee" stroke="none" stroke-width="none" transform="translate(-72.364990234375,15.668398010253908)" style="fill: rgb(238, 238, 238);"></path></g></g>
</g>
<style id="tremble-fc19520c-0647-4f84-aa36-fdcfc928aad2" data-anikit="">@keyframes tremble-fc19520c-0647-4f84-aa36-fdcfc928aad2 {
  0% { transform: translate(0px,0px) rotate(0deg) scale(1) }
  3.33333% { transform: translate(-0.12615018264754452px,0.9698977821118335px) rotate(0deg) scale(1); animation-timing-function: linear }
  6.66667% { transform: translate(-0.5619766129265024px,-0.8834956645007898px) rotate(0deg) scale(1); animation-timing-function: linear }
  10% { transform: translate(0.453141551444475px,0.6694804390207767px) rotate(0deg) scale(1); animation-timing-function: linear }
  13.33333% { transform: translate(-0.3370664187988621px,0.5574421086412933px) rotate(0deg) scale(1); animation-timing-function: linear }
  16.66667% { transform: translate(0.8757850658430284px,-0.34267586284722573px) rotate(0deg) scale(1); animation-timing-function: linear }
  20% { transform: translate(-0.8078957184754297px,0.9946198880302146px) rotate(0deg) scale(1); animation-timing-function: linear }
  23.33333% { transform: translate(0.7270980696559657px,-0.14172867092182806px) rotate(0deg) scale(1); animation-timing-function: linear }
  26.66667% { transform: translate(-0.999440595260007px,0.37439598865251655px) rotate(0deg) scale(1); animation-timing-function: linear }
  30% { transform: translate(0.9872372658375417px,0.8081860061166029px) rotate(0deg) scale(1); animation-timing-function: linear }
  33.33333% { transform: translate(-0.9592602399818849px,-0.7680026042383505px) rotate(0deg) scale(1); animation-timing-function: linear }
  36.66667% { transform: translate(0.9060947861836881px,0.8989009211917853px) rotate(0deg) scale(1); animation-timing-function: linear }
  40% { transform: translate(-0.9522270459170356px,0.20606909520901184px) rotate(0deg) scale(1); animation-timing-function: linear }
  43.33333% { transform: translate(0.9831449526833496px,-0.9992616779089113px) rotate(0deg) scale(1); animation-timing-function: linear }
  46.66667% { transform: translate(-0.6160150062213702px,0.9610644092985385px) rotate(0deg) scale(1); animation-timing-function: linear }
  50% { transform: translate(0.7104664934976335px,-0.5020374617331373px) rotate(0deg) scale(1); animation-timing-function: linear }
  53.33333% { transform: translate(-0.7935666840812218px,-0.7165598387038524px) rotate(0deg) scale(1); animation-timing-function: linear }
  56.66667% { transform: translate(0.19218446082439922px,0.5289134353453799px) rotate(0deg) scale(1); animation-timing-function: linear }
  60% { transform: translate(-0.31444758182943544px,-0.9519256253140553px) rotate(0deg) scale(1); animation-timing-function: linear }
  63.33333% { transform: translate(0.43168635354162377px,-0.06530224722951339px) rotate(0deg) scale(1); animation-timing-function: linear }
  66.66667% { transform: translate(0.27337416005034076px,-0.1752789095075209px) rotate(0deg) scale(1); animation-timing-function: linear }
  70% { transform: translate(-0.14984552198402024px,-0.9121999866105953px) rotate(0deg) scale(1); animation-timing-function: linear }
  73.33333% { transform: translate(0.023921750817491372px,0.6195431224826276px) rotate(0deg) scale(1); animation-timing-function: linear }
  76.66667% { transform: translate(-0.6795767410857682px,-0.7893185595278053px) rotate(0deg) scale(1); animation-timing-function: linear }
  80% { transform: translate(0.5816031088249554px,-0.4032926511505005px) rotate(0deg) scale(1); animation-timing-function: linear }
  83.33333% { transform: translate(-0.4743367541507919px,0.985732169363239px) rotate(0deg) scale(1); animation-timing-function: linear }
  86.66667% { transform: translate(0.9382276109173351px,-0.9973794650381614px) rotate(0deg) scale(1); animation-timing-function: linear }
  90% { transform: translate(-0.887081560498492px,0.31304433414445176px) rotate(0deg) scale(1); animation-timing-function: linear }
  93.33333% { transform: translate(0.8217623590388019px,0.8449190432267653px) rotate(0deg) scale(1); animation-timing-function: linear }
  96.66667% { transform: translate(-0.9931677836265367px,-0.6924475366821162px) rotate(0deg) scale(1); animation-timing-function: linear }
  100% { transform: translate(0,0) rotate(0) scale(1) }
}</style><style id="tremble-fc19520c-0647-4f84-aa36-fdcfc928aad2" data-anikit="">@keyframes tremble-fc19520c-0647-4f84-aa36-fdcfc928aad2 {
  0% { transform: translate(0px,0px) rotate(0deg) scale(1) }
  3.33333% { transform: translate(-0.12615018264754452px,0.9698977821118335px) rotate(0deg) scale(1); animation-timing-function: linear }
  6.66667% { transform: translate(-0.5619766129265024px,-0.8834956645007898px) rotate(0deg) scale(1); animation-timing-function: linear }
  10% { transform: translate(0.453141551444475px,0.6694804390207767px) rotate(0deg) scale(1); animation-timing-function: linear }
  13.33333% { transform: translate(-0.3370664187988621px,0.5574421086412933px) rotate(0deg) scale(1); animation-timing-function: linear }
  16.66667% { transform: translate(0.8757850658430284px,-0.34267586284722573px) rotate(0deg) scale(1); animation-timing-function: linear }
  20% { transform: translate(-0.8078957184754297px,0.9946198880302146px) rotate(0deg) scale(1); animation-timing-function: linear }
  23.33333% { transform: translate(0.7270980696559657px,-0.14172867092182806px) rotate(0deg) scale(1); animation-timing-function: linear }
  26.66667% { transform: translate(-0.999440595260007px,0.37439598865251655px) rotate(0deg) scale(1); animation-timing-function: linear }
  30% { transform: translate(0.9872372658375417px,0.8081860061166029px) rotate(0deg) scale(1); animation-timing-function: linear }
  33.33333% { transform: translate(-0.9592602399818849px,-0.7680026042383505px) rotate(0deg) scale(1); animation-timing-function: linear }
  36.66667% { transform: translate(0.9060947861836881px,0.8989009211917853px) rotate(0deg) scale(1); animation-timing-function: linear }
  40% { transform: translate(-0.9522270459170356px,0.20606909520901184px) rotate(0deg) scale(1); animation-timing-function: linear }
  43.33333% { transform: translate(0.9831449526833496px,-0.9992616779089113px) rotate(0deg) scale(1); animation-timing-function: linear }
  46.66667% { transform: translate(-0.6160150062213702px,0.9610644092985385px) rotate(0deg) scale(1); animation-timing-function: linear }
  50% { transform: translate(0.7104664934976335px,-0.5020374617331373px) rotate(0deg) scale(1); animation-timing-function: linear }
  53.33333% { transform: translate(-0.7935666840812218px,-0.7165598387038524px) rotate(0deg) scale(1); animation-timing-function: linear }
  56.66667% { transform: translate(0.19218446082439922px,0.5289134353453799px) rotate(0deg) scale(1); animation-timing-function: linear }
  60% { transform: translate(-0.31444758182943544px,-0.9519256253140553px) rotate(0deg) scale(1); animation-timing-function: linear }
  63.33333% { transform: translate(0.43168635354162377px,-0.06530224722951339px) rotate(0deg) scale(1); animation-timing-function: linear }
  66.66667% { transform: translate(0.27337416005034076px,-0.1752789095075209px) rotate(0deg) scale(1); animation-timing-function: linear }
  70% { transform: translate(-0.14984552198402024px,-0.9121999866105953px) rotate(0deg) scale(1); animation-timing-function: linear }
  73.33333% { transform: translate(0.023921750817491372px,0.6195431224826276px) rotate(0deg) scale(1); animation-timing-function: linear }
  76.66667% { transform: translate(-0.6795767410857682px,-0.7893185595278053px) rotate(0deg) scale(1); animation-timing-function: linear }
  80% { transform: translate(0.5816031088249554px,-0.4032926511505005px) rotate(0deg) scale(1); animation-timing-function: linear }
  83.33333% { transform: translate(-0.4743367541507919px,0.985732169363239px) rotate(0deg) scale(1); animation-timing-function: linear }
  86.66667% { transform: translate(0.9382276109173351px,-0.9973794650381614px) rotate(0deg) scale(1); animation-timing-function: linear }
  90% { transform: translate(-0.887081560498492px,0.31304433414445176px) rotate(0deg) scale(1); animation-timing-function: linear }
  93.33333% { transform: translate(0.8217623590388019px,0.8449190432267653px) rotate(0deg) scale(1); animation-timing-function: linear }
  96.66667% { transform: translate(-0.9931677836265367px,-0.6924475366821162px) rotate(0deg) scale(1); animation-timing-function: linear }
  100% { transform: translate(0,0) rotate(0) scale(1) }
}</style></svg>