<?xml version="1.0" encoding="utf-8"?>
<svg xmlns="http://www.w3.org/2000/svg" style="margin: auto; background: rgb(241, 242, 243); display: block; shape-rendering: auto;" width="165" height="110" preserveAspectRatio="xMidYMid">
<style type="text/css">
  text {
    text-anchor: middle; font-size: 59px; opacity: 0;
  }
</style>
<g transform="translate(82.5,55)">
  <g transform="translate(-5,4)"><g class="path" style="transform-origin: -46.38px -5.2449px; transform: matrix(1, 0, 0, 1, 0, 0); animation: 20s linear -11s infinite normal forwards running tremble-fc19520c-0647-4f84-aa36-fdcfc928aad2;"><path d="M10.97 0L1.65-40.24L6.67-40.24L14.46-4.72L14.51-4.72L24.84-40.24L31.09-40.24L41.30-4.72L41.36-4.72L49.09-40.24L54.10-40.24L44.84 0L38.59 0L27.97-35.46L27.91-35.46L17.23 0L10.97 0" fill="#4d4747" stroke="none" stroke-width="none" transform="translate(-74.2550048828125,14.875100657145186)" style="fill: rgb(77, 71, 71);"></path></g><g class="path" style="transform-origin: -2.245px -7.4849px; transform: matrix(1, 0, 0, 1, 0, 0); animation: 20s linear -8.8s infinite normal forwards running tremble-fc19520c-0647-4f84-aa36-fdcfc928aad2;"><path d="M60.06 0L60.06-44.19L64.78-44.72L64.78-25.96L64.78-25.96Q66.55-27.14 68.29-28.03L68.29-28.03L68.29-28.03Q70.03-28.91 71.86-29.59L71.86-29.59L71.86-29.59Q73.69-30.27 75.40-30.27L75.40-30.27L75.40-30.27Q77.82-30.27 79.44-29.71L79.44-29.71L79.44-29.71Q81.07-29.15 82.07-27.85L82.07-27.85L82.07-27.85Q83.07-26.55 83.51-24.43L83.51-24.43L83.51-24.43Q83.96-22.30 83.96-19.12L83.96-19.12L83.96 0L79.24 0L79.24-18.59L79.24-18.59Q79.24-20.36 79.18-21.74L79.18-21.74L79.18-21.74Q79.12-23.13 78.68-24.10L78.68-24.10L78.68-24.10Q78.23-25.08 77.32-25.61L77.32-25.61L77.32-25.61Q76.41-26.14 74.75-26.14L74.75-26.14L74.75-26.14Q73.22-26.14 71.45-25.46L71.45-25.46L71.45-25.46Q69.68-24.78 68.09-23.90L68.09-23.90L68.09-23.90Q66.49-23.01 64.78-21.83L64.78-21.83L64.78 0L60.06 0" fill="#4d4747" stroke="none" stroke-width="none" transform="translate(-74.2550048828125,14.875100657145186)" style="fill: rgb(77, 71, 71);"></path></g><g class="path" style="transform-origin: 20.385px -0.259903px; transform: matrix(1, 0, 0, 1, 0, 0); animation: 20s linear -6.6s infinite normal forwards running tremble-fc19520c-0647-4f84-aa36-fdcfc928aad2;"><path d="M92.28 0L92.28-29.74L97.00-30.27L97.00 0L92.28 0" fill="#4d4747" stroke="none" stroke-width="none" transform="translate(-74.2550048828125,14.875100657145186)" style="fill: rgb(77, 71, 71);"></path></g><g class="path" style="transform-origin: 20.53px -23.2999px; transform: matrix(1, 0, 0, 1, 0, 0); animation: 20s linear -4.4s infinite normal forwards running tremble-fc19520c-0647-4f84-aa36-fdcfc928aad2;"><path d="M91.51-38.17L91.51-38.17L91.51-38.17Q91.51-39.53 92.42-40.44L92.42-40.44L92.42-40.44Q93.34-41.36 94.70-41.36L94.70-41.36L94.70-41.36Q96.11-41.36 97.08-40.44L97.08-40.44L97.08-40.44Q98.06-39.53 98.06-38.17L98.06-38.17L98.06-38.17Q98.06-36.82 97.08-35.90L97.08-35.90L97.08-35.90Q96.11-34.99 94.70-34.99L94.70-34.99L94.70-34.99Q93.34-34.99 92.42-35.90L92.42-35.90L92.42-35.90Q91.51-36.82 91.51-38.17" fill="#4d4747" stroke="none" stroke-width="none" transform="translate(-74.2550048828125,14.875100657145186)" style="fill: rgb(77, 71, 71);"></path></g><g class="path" style="transform-origin: 37.7px -4.0049px; transform: matrix(1, 0, 0, 1, 0, 0); animation: 20s linear -2.2s infinite normal forwards running tremble-fc19520c-0647-4f84-aa36-fdcfc928aad2;"><path d="M107.67-37.94L112.39-38.53L112.39-29.68L120.95-29.68L120.95-25.84L112.39-25.84L112.39-10.09L112.39-10.09Q112.39-8.14 112.48-6.84L112.48-6.84L112.48-6.84Q112.57-5.55 112.87-4.78L112.87-4.78L112.87-4.78Q113.16-4.01 113.69-3.69L113.69-3.69L113.69-3.69Q114.22-3.36 115.05-3.36L115.05-3.36L115.05-3.36Q117.29-3.42 120.24-5.02L120.24-5.02L121.66-1.42L121.66-1.42Q119.71-0.12 118.03 0.32L118.03 0.32L118.03 0.32Q116.35 0.77 114.70 0.77L114.70 0.77L114.70 0.77Q110.80 0.77 109.24-1.45L109.24-1.45L109.24-1.45Q107.67-3.66 107.67-8.79L107.67-8.79L107.67-25.84L102.25-25.84L102.25-29.68L107.67-29.68L107.67-37.94" fill="#4d4747" stroke="none" stroke-width="none" transform="translate(-74.2550048828125,14.875100657145186)" style="fill: rgb(77, 71, 71);"></path></g><g class="path" style="transform-origin: 63.365px 0.125107px; transform: matrix(1, 0, 0, 1, 0, 0); animation: 20s linear 0s infinite normal forwards running tremble-fc19520c-0647-4f84-aa36-fdcfc928aad2;"><path d="M147.79-4.66L148.68-0.71L148.68-0.71Q147.32-0.30 145.88 0L145.88 0L145.88 0Q144.43 0.30 142.69 0.53L142.69 0.53L142.69 0.53Q140.95 0.77 139.06 0.77L139.06 0.77L139.06 0.77Q136.11 0.77 133.58-0.06L133.58-0.06L133.58-0.06Q131.04-0.89 129.15-2.71L129.15-2.71L129.15-2.71Q127.26-4.54 126.17-7.46L126.17-7.46L126.17-7.46Q125.08-10.38 125.08-14.63L125.08-14.63L125.08-14.63Q125.08-18.47 126.14-21.39L126.14-21.39L126.14-21.39Q127.20-24.31 129.06-26.28L129.06-26.28L129.06-26.28Q130.92-28.26 133.43-29.26L133.43-29.26L133.43-29.26Q135.94-30.27 138.89-30.27L138.89-30.27L138.89-30.27Q141.78-30.27 143.90-29.15L143.90-29.15L143.90-29.15Q146.03-28.03 147.41-26.11L147.41-26.11L147.41-26.11Q148.80-24.19 149.48-21.62L149.48-21.62L149.48-21.62Q150.16-19.06 150.16-16.23L150.16-16.23L149.27-13.63L130.21-13.63L130.21-13.63Q130.21-11.80 130.69-9.97L130.69-9.97L130.69-9.97Q131.16-8.14 132.31-6.67L132.31-6.67L132.31-6.67Q133.46-5.19 135.32-4.28L135.32-4.28L135.32-4.28Q137.17-3.36 139.95-3.36L139.95-3.36L139.95-3.36Q141.72-3.36 143.19-3.57L143.19-3.57L143.19-3.57Q144.67-3.78 145.76-4.04L145.76-4.04L145.76-4.04Q146.85-4.31 147.79-4.66L147.79-4.66zM130.39-17.41L145.26-17.41L145.26-17.41Q145.26-17.82 145.08-19.23L145.08-19.23L145.08-19.23Q144.90-20.65 144.25-22.18L144.25-22.18L144.25-22.18Q143.61-23.72 142.25-24.93L142.25-24.93L142.25-24.93Q140.89-26.14 138.65-26.14L138.65-26.14L138.65-26.14Q136.17-26.14 134.58-25.10L134.58-25.10L134.58-25.10Q132.99-24.07 132.04-22.66L132.04-22.66L132.04-22.66Q131.10-21.24 130.74-19.77L130.74-19.77L130.74-19.77Q130.39-18.29 130.39-17.41L130.39-17.41" fill="#4d4747" stroke="none" stroke-width="none" transform="translate(-74.2550048828125,14.875100657145186)" style="fill: rgb(77, 71, 71);"></path></g></g>
</g>
<style id="tremble-fc19520c-0647-4f84-aa36-fdcfc928aad2" data-anikit="">@keyframes tremble-fc19520c-0647-4f84-aa36-fdcfc928aad2 {
  0% { transform: translate(0px,0px) rotate(0deg) scale(1) }
  3.33333% { transform: translate(-0.12615018264754452px,0.9698977821118335px) rotate(0deg) scale(1); animation-timing-function: linear }
  6.66667% { transform: translate(-0.5619766129265024px,-0.8834956645007898px) rotate(0deg) scale(1); animation-timing-function: linear }
  10% { transform: translate(0.453141551444475px,0.6694804390207767px) rotate(0deg) scale(1); animation-timing-function: linear }
  13.33333% { transform: translate(-0.3370664187988621px,0.5574421086412933px) rotate(0deg) scale(1); animation-timing-function: linear }
  16.66667% { transform: translate(0.8757850658430284px,-0.34267586284722573px) rotate(0deg) scale(1); animation-timing-function: linear }
  20% { transform: translate(-0.8078957184754297px,0.9946198880302146px) rotate(0deg) scale(1); animation-timing-function: linear }
  23.33333% { transform: translate(0.7270980696559657px,-0.14172867092182806px) rotate(0deg) scale(1); animation-timing-function: linear }
  26.66667% { transform: translate(-0.999440595260007px,0.37439598865251655px) rotate(0deg) scale(1); animation-timing-function: linear }
  30% { transform: translate(0.9872372658375417px,0.8081860061166029px) rotate(0deg) scale(1); animation-timing-function: linear }
  33.33333% { transform: translate(-0.9592602399818849px,-0.7680026042383505px) rotate(0deg) scale(1); animation-timing-function: linear }
  36.66667% { transform: translate(0.9060947861836881px,0.8989009211917853px) rotate(0deg) scale(1); animation-timing-function: linear }
  40% { transform: translate(-0.9522270459170356px,0.20606909520901184px) rotate(0deg) scale(1); animation-timing-function: linear }
  43.33333% { transform: translate(0.9831449526833496px,-0.9992616779089113px) rotate(0deg) scale(1); animation-timing-function: linear }
  46.66667% { transform: translate(-0.6160150062213702px,0.9610644092985385px) rotate(0deg) scale(1); animation-timing-function: linear }
  50% { transform: translate(0.7104664934976335px,-0.5020374617331373px) rotate(0deg) scale(1); animation-timing-function: linear }
  53.33333% { transform: translate(-0.7935666840812218px,-0.7165598387038524px) rotate(0deg) scale(1); animation-timing-function: linear }
  56.66667% { transform: translate(0.19218446082439922px,0.5289134353453799px) rotate(0deg) scale(1); animation-timing-function: linear }
  60% { transform: translate(-0.31444758182943544px,-0.9519256253140553px) rotate(0deg) scale(1); animation-timing-function: linear }
  63.33333% { transform: translate(0.43168635354162377px,-0.06530224722951339px) rotate(0deg) scale(1); animation-timing-function: linear }
  66.66667% { transform: translate(0.27337416005034076px,-0.1752789095075209px) rotate(0deg) scale(1); animation-timing-function: linear }
  70% { transform: translate(-0.14984552198402024px,-0.9121999866105953px) rotate(0deg) scale(1); animation-timing-function: linear }
  73.33333% { transform: translate(0.023921750817491372px,0.6195431224826276px) rotate(0deg) scale(1); animation-timing-function: linear }
  76.66667% { transform: translate(-0.6795767410857682px,-0.7893185595278053px) rotate(0deg) scale(1); animation-timing-function: linear }
  80% { transform: translate(0.5816031088249554px,-0.4032926511505005px) rotate(0deg) scale(1); animation-timing-function: linear }
  83.33333% { transform: translate(-0.4743367541507919px,0.985732169363239px) rotate(0deg) scale(1); animation-timing-function: linear }
  86.66667% { transform: translate(0.9382276109173351px,-0.9973794650381614px) rotate(0deg) scale(1); animation-timing-function: linear }
  90% { transform: translate(-0.887081560498492px,0.31304433414445176px) rotate(0deg) scale(1); animation-timing-function: linear }
  93.33333% { transform: translate(0.8217623590388019px,0.8449190432267653px) rotate(0deg) scale(1); animation-timing-function: linear }
  96.66667% { transform: translate(-0.9931677836265367px,-0.6924475366821162px) rotate(0deg) scale(1); animation-timing-function: linear }
  100% { transform: translate(0,0) rotate(0) scale(1) }
}</style><style id="tremble-fc19520c-0647-4f84-aa36-fdcfc928aad2" data-anikit="">@keyframes tremble-fc19520c-0647-4f84-aa36-fdcfc928aad2 {
  0% { transform: translate(0px,0px) rotate(0deg) scale(1) }
  3.33333% { transform: translate(-0.12615018264754452px,0.9698977821118335px) rotate(0deg) scale(1); animation-timing-function: linear }
  6.66667% { transform: translate(-0.5619766129265024px,-0.8834956645007898px) rotate(0deg) scale(1); animation-timing-function: linear }
  10% { transform: translate(0.453141551444475px,0.6694804390207767px) rotate(0deg) scale(1); animation-timing-function: linear }
  13.33333% { transform: translate(-0.3370664187988621px,0.5574421086412933px) rotate(0deg) scale(1); animation-timing-function: linear }
  16.66667% { transform: translate(0.8757850658430284px,-0.34267586284722573px) rotate(0deg) scale(1); animation-timing-function: linear }
  20% { transform: translate(-0.8078957184754297px,0.9946198880302146px) rotate(0deg) scale(1); animation-timing-function: linear }
  23.33333% { transform: translate(0.7270980696559657px,-0.14172867092182806px) rotate(0deg) scale(1); animation-timing-function: linear }
  26.66667% { transform: translate(-0.999440595260007px,0.37439598865251655px) rotate(0deg) scale(1); animation-timing-function: linear }
  30% { transform: translate(0.9872372658375417px,0.8081860061166029px) rotate(0deg) scale(1); animation-timing-function: linear }
  33.33333% { transform: translate(-0.9592602399818849px,-0.7680026042383505px) rotate(0deg) scale(1); animation-timing-function: linear }
  36.66667% { transform: translate(0.9060947861836881px,0.8989009211917853px) rotate(0deg) scale(1); animation-timing-function: linear }
  40% { transform: translate(-0.9522270459170356px,0.20606909520901184px) rotate(0deg) scale(1); animation-timing-function: linear }
  43.33333% { transform: translate(0.9831449526833496px,-0.9992616779089113px) rotate(0deg) scale(1); animation-timing-function: linear }
  46.66667% { transform: translate(-0.6160150062213702px,0.9610644092985385px) rotate(0deg) scale(1); animation-timing-function: linear }
  50% { transform: translate(0.7104664934976335px,-0.5020374617331373px) rotate(0deg) scale(1); animation-timing-function: linear }
  53.33333% { transform: translate(-0.7935666840812218px,-0.7165598387038524px) rotate(0deg) scale(1); animation-timing-function: linear }
  56.66667% { transform: translate(0.19218446082439922px,0.5289134353453799px) rotate(0deg) scale(1); animation-timing-function: linear }
  60% { transform: translate(-0.31444758182943544px,-0.9519256253140553px) rotate(0deg) scale(1); animation-timing-function: linear }
  63.33333% { transform: translate(0.43168635354162377px,-0.06530224722951339px) rotate(0deg) scale(1); animation-timing-function: linear }
  66.66667% { transform: translate(0.27337416005034076px,-0.1752789095075209px) rotate(0deg) scale(1); animation-timing-function: linear }
  70% { transform: translate(-0.14984552198402024px,-0.9121999866105953px) rotate(0deg) scale(1); animation-timing-function: linear }
  73.33333% { transform: translate(0.023921750817491372px,0.6195431224826276px) rotate(0deg) scale(1); animation-timing-function: linear }
  76.66667% { transform: translate(-0.6795767410857682px,-0.7893185595278053px) rotate(0deg) scale(1); animation-timing-function: linear }
  80% { transform: translate(0.5816031088249554px,-0.4032926511505005px) rotate(0deg) scale(1); animation-timing-function: linear }
  83.33333% { transform: translate(-0.4743367541507919px,0.985732169363239px) rotate(0deg) scale(1); animation-timing-function: linear }
  86.66667% { transform: translate(0.9382276109173351px,-0.9973794650381614px) rotate(0deg) scale(1); animation-timing-function: linear }
  90% { transform: translate(-0.887081560498492px,0.31304433414445176px) rotate(0deg) scale(1); animation-timing-function: linear }
  93.33333% { transform: translate(0.8217623590388019px,0.8449190432267653px) rotate(0deg) scale(1); animation-timing-function: linear }
  96.66667% { transform: translate(-0.9931677836265367px,-0.6924475366821162px) rotate(0deg) scale(1); animation-timing-function: linear }
  100% { transform: translate(0,0) rotate(0) scale(1) }
}</style></svg>