<?xml version="1.0" encoding="utf-8"?>
<svg xmlns="http://www.w3.org/2000/svg" style="margin: auto; background: rgb(17, 156, 237); display: block; shape-rendering: auto;" width="165" height="110" preserveAspectRatio="xMidYMid">
<style type="text/css">
  text {
    text-anchor: middle; font-size: 59px; opacity: 0;
  }
</style>
<g transform="translate(82.5,55)">
  <g transform="translate(-5,4)"><g class="path" style="transform-origin: -32.095px -2.9801px; transform: scale(0.91); animation: 0.699301s linear -0.346154s infinite normal forwards running breath-304ad4a9-476c-4aef-992b-be6fb12e7c13;"><path d="M5.19 0L5.19-40.24L15.93-40.24L15.93-40.24Q22.30-40.24 25.16-37.88L25.16-37.88L25.16-37.88Q28.03-35.52 28.03-30.68L28.03-30.68L28.03-30.68Q28.03-28.44 27.41-26.79L27.41-26.79L27.41-26.79Q26.79-25.13 26.02-24.01L26.02-24.01L26.02-24.01Q25.13-22.71 24.07-21.77L24.07-21.77L24.07-21.77Q25.49-21.24 26.73-20.41L26.73-20.41L26.73-20.41Q27.97-19.59 28.91-18.41L28.91-18.41L28.91-18.41Q29.85-17.23 30.41-15.61L30.41-15.61L30.41-15.61Q30.98-13.98 30.98-11.80L30.98-11.80L30.98-11.80Q30.98-9.38 30.33-7.23L30.33-7.23L30.33-7.23Q29.68-5.07 28.14-3.48L28.14-3.48L28.14-3.48Q26.61-1.89 24.07-0.94L24.07-0.94L24.07-0.94Q21.54 0 17.76 0L17.76 0L5.19 0zM10.15-35.81L10.15-22.77L20.00-22.77L20.00-22.77Q20.83-23.42 21.48-24.49L21.48-24.49L21.48-24.49Q22.07-25.37 22.54-26.70L22.54-26.70L22.54-26.70Q23.01-28.03 23.01-29.91L23.01-29.91L23.01-29.91Q23.01-33.39 21.21-34.60L21.21-34.60L21.21-34.60Q19.41-35.81 16.17-35.81L16.17-35.81L10.15-35.81zM10.15-18.64L10.15-4.43L18.17-4.43L18.17-4.43Q22.07-4.43 24.01-6.43L24.01-6.43L24.01-6.43Q25.96-8.44 25.96-11.80L25.96-11.80L25.96-11.80Q25.96-13.28 25.58-14.51L25.58-14.51L25.58-14.51Q25.19-15.75 24.25-16.67L24.25-16.67L24.25-16.67Q23.31-17.58 21.71-18.11L21.71-18.11L21.71-18.11Q20.12-18.64 17.76-18.64L17.76-18.64L10.15-18.64" fill="#eeeeee" stroke="none" stroke-width="none" transform="translate(-50.17999267578125,17.139901275634767)" style="fill: rgb(238, 238, 238);"></path></g><g class="path" style="transform-origin: -9.94px -5.2201px; transform: scale(0.91); animation: 0.699301s linear -0.230769s infinite normal forwards running breath-304ad4a9-476c-4aef-992b-be6fb12e7c13;"><path d="M37.88 0L37.88-44.19L42.60-44.72L42.60 0L37.88 0" fill="#eeeeee" stroke="none" stroke-width="none" transform="translate(-50.17999267578125,17.139901275634767)" style="fill: rgb(238, 238, 238);"></path></g><g class="path" style="transform-origin: 12.215px 2.68491px; transform: scale(0.91); animation: 0.699301s linear -0.115385s infinite normal forwards running breath-304ad4a9-476c-4aef-992b-be6fb12e7c13;"><path d="M69.21 0.47L68.85-3.25L68.74-3.25L68.74-3.25Q68.20-2.83 67.20-2.15L67.20-2.15L67.20-2.15Q66.20-1.48 64.90-0.83L64.90-0.83L64.90-0.83Q63.60-0.18 62.04 0.30L62.04 0.30L62.04 0.30Q60.48 0.77 58.88 0.77L58.88 0.77L58.88 0.77Q56.70 0.77 55.17 0.21L55.17 0.21L55.17 0.21Q53.63-0.35 52.69-1.65L52.69-1.65L52.69-1.65Q51.74-2.95 51.33-5.07L51.33-5.07L51.33-5.07Q50.92-7.20 50.92-10.38L50.92-10.38L50.92-29.68L55.64-29.68L55.64-11.09L55.64-11.09Q55.64-9.32 55.70-7.91L55.70-7.91L55.70-7.91Q55.76-6.49 56.11-5.49L56.11-5.49L56.11-5.49Q56.46-4.48 57.26-3.92L57.26-3.92L57.26-3.92Q58.06-3.36 59.53-3.36L59.53-3.36L59.53-3.36Q61.07-3.36 62.72-4.01L62.72-4.01L62.72-4.01Q64.37-4.66 65.73-5.49L65.73-5.49L65.73-5.49Q67.32-6.43 68.85-7.61L68.85-7.61L68.85-29.68L73.57-29.68L73.57-3.84L73.57-3.84Q73.63-1.71 73.87 0L73.87 0L69.21 0.47" fill="#eeeeee" stroke="none" stroke-width="none" transform="translate(-50.17999267578125,17.139901275634767)" style="fill: rgb(238, 238, 238);"></path></g><g class="path" style="transform-origin: 42.835px 2.38991px; transform: scale(0.91); animation: 0.699301s linear 0s infinite normal forwards running breath-304ad4a9-476c-4aef-992b-be6fb12e7c13;"><path d="M103.19-4.66L104.08-0.71L104.08-0.71Q102.72-0.30 101.27 0L101.27 0L101.27 0Q99.83 0.30 98.09 0.53L98.09 0.53L98.09 0.53Q96.35 0.77 94.46 0.77L94.46 0.77L94.46 0.77Q91.51 0.77 88.97-0.06L88.97-0.06L88.97-0.06Q86.44-0.89 84.55-2.71L84.55-2.71L84.55-2.71Q82.66-4.54 81.57-7.46L81.57-7.46L81.57-7.46Q80.48-10.38 80.48-14.63L80.48-14.63L80.48-14.63Q80.48-18.47 81.54-21.39L81.54-21.39L81.54-21.39Q82.60-24.31 84.46-26.28L84.46-26.28L84.46-26.28Q86.32-28.26 88.82-29.26L88.82-29.26L88.82-29.26Q91.33-30.27 94.28-30.27L94.28-30.27L94.28-30.27Q97.17-30.27 99.30-29.15L99.30-29.15L99.30-29.15Q101.42-28.03 102.81-26.11L102.81-26.11L102.81-26.11Q104.19-24.19 104.87-21.62L104.87-21.62L104.87-21.62Q105.55-19.06 105.55-16.23L105.55-16.23L104.67-13.63L85.61-13.63L85.61-13.63Q85.61-11.80 86.08-9.97L86.08-9.97L86.08-9.97Q86.55-8.14 87.70-6.67L87.70-6.67L87.70-6.67Q88.85-5.19 90.71-4.28L90.71-4.28L90.71-4.28Q92.57-3.36 95.34-3.36L95.34-3.36L95.34-3.36Q97.11-3.36 98.59-3.57L98.59-3.57L98.59-3.57Q100.06-3.78 101.16-4.04L101.16-4.04L101.16-4.04Q102.25-4.31 103.19-4.66L103.19-4.66zM85.79-17.41L100.65-17.41L100.65-17.41Q100.65-17.82 100.48-19.23L100.48-19.23L100.48-19.23Q100.30-20.65 99.65-22.18L99.65-22.18L99.65-22.18Q99.00-23.72 97.65-24.93L97.65-24.93L97.65-24.93Q96.29-26.14 94.05-26.14L94.05-26.14L94.05-26.14Q91.57-26.14 89.98-25.10L89.98-25.10L89.98-25.10Q88.38-24.07 87.44-22.66L87.44-22.66L87.44-22.66Q86.49-21.24 86.14-19.77L86.14-19.77L86.14-19.77Q85.79-18.29 85.79-17.41L85.79-17.41" fill="#eeeeee" stroke="none" stroke-width="none" transform="translate(-50.17999267578125,17.139901275634767)" style="fill: rgb(238, 238, 238);"></path></g></g>
</g>
<style id="breath-304ad4a9-476c-4aef-992b-be6fb12e7c13" data-anikit="">@keyframes breath-304ad4a9-476c-4aef-992b-be6fb12e7c13
{
  0% {
    animation-timing-function: cubic-bezier(0.9647,0.2413,-0.0705,0.7911);
    transform: scale(0.9099999999999999);
  }
  51% {
    animation-timing-function: cubic-bezier(0.9226,0.2631,-0.0308,0.7628);
    transform: scale(1.02994);
  }
  100% {
    transform: scale(0.9099999999999999);
  }
}</style><style id="breath-304ad4a9-476c-4aef-992b-be6fb12e7c13" data-anikit="">@keyframes breath-304ad4a9-476c-4aef-992b-be6fb12e7c13
{
  0% {
    animation-timing-function: cubic-bezier(0.9647,0.2413,-0.0705,0.7911);
    transform: scale(0.9099999999999999);
  }
  51% {
    animation-timing-function: cubic-bezier(0.9226,0.2631,-0.0308,0.7628);
    transform: scale(1.02994);
  }
  100% {
    transform: scale(0.9099999999999999);
  }
}</style></svg>