<?xml version="1.0" encoding="utf-8"?>
<svg xmlns="http://www.w3.org/2000/svg" style="margin: auto; background: rgb(191, 31, 142); display: block; shape-rendering: auto;" width="165" height="110" preserveAspectRatio="xMidYMid">
<style type="text/css">
  text {
    text-anchor: middle; font-size: 59px; opacity: 0;
  }
</style>
<g transform="translate(82.5,55)">
  <g transform="translate(-5,4)"><g class="path" style="transform-origin: -57.82px -2.17703px; transform: scale(0.91); animation: 0.699301s linear -0.384615s infinite normal forwards running breath-304ad4a9-476c-4aef-992b-be6fb12e7c13;"><path d="M5.19 0L5.19-40.24L14.46-40.24L14.46-40.24Q22.13-40.24 25.81-37.52L25.81-37.52L25.81-37.52Q29.50-34.81 29.50-28.38L29.50-28.38L29.50-28.38Q29.50-24.84 28.14-22.48L28.14-22.48L28.14-22.48Q26.79-20.12 24.75-18.67L24.75-18.67L24.75-18.67Q22.71-17.23 20.36-16.61L20.36-16.61L20.36-16.61Q18.00-15.99 15.99-15.99L15.99-15.99L10.15-15.99L10.15 0L5.19 0zM10.15-35.81L10.15-20.41L15.58-20.41L15.58-20.41Q17.58-20.41 19.20-20.80L19.20-20.80L19.20-20.80Q20.83-21.18 22.01-22.10L22.01-22.10L22.01-22.10Q23.19-23.01 23.84-24.57L23.84-24.57L23.84-24.57Q24.49-26.14 24.49-28.50L24.49-28.50L24.49-28.50Q24.49-30.86 23.81-32.30L23.81-32.30L23.81-32.30Q23.13-33.75 21.80-34.52L21.80-34.52L21.80-34.52Q20.47-35.28 18.47-35.55L18.47-35.55L18.47-35.55Q16.46-35.81 13.81-35.81L13.81-35.81L10.15-35.81" fill="#e4d8eb" stroke="none" stroke-width="none" transform="translate(-75.16500854492188,17.942967478434248)" style="fill: rgb(228, 216, 235);"></path></g><g class="path" style="transform-origin: -27.76px 3.48797px; transform: scale(0.91); animation: 0.699301s linear -0.307692s infinite normal forwards running breath-304ad4a9-476c-4aef-992b-be6fb12e7c13;"><path d="M54.22 0.47L53.87-3.25L53.75-3.25L53.75-3.25Q53.22-2.83 52.22-2.15L52.22-2.15L52.22-2.15Q51.21-1.48 49.91-0.83L49.91-0.83L49.91-0.83Q48.62-0.18 47.05 0.30L47.05 0.30L47.05 0.30Q45.49 0.77 43.90 0.77L43.90 0.77L43.90 0.77Q41.71 0.77 40.18 0.21L40.18 0.21L40.18 0.21Q38.65-0.35 37.70-1.65L37.70-1.65L37.70-1.65Q36.76-2.95 36.34-5.07L36.34-5.07L36.34-5.07Q35.93-7.20 35.93-10.38L35.93-10.38L35.93-29.68L40.65-29.68L40.65-11.09L40.65-11.09Q40.65-9.32 40.71-7.91L40.71-7.91L40.71-7.91Q40.77-6.49 41.12-5.49L41.12-5.49L41.12-5.49Q41.48-4.48 42.27-3.92L42.27-3.92L42.27-3.92Q43.07-3.36 44.55-3.36L44.55-3.36L44.55-3.36Q46.08-3.36 47.73-4.01L47.73-4.01L47.73-4.01Q49.38-4.66 50.74-5.49L50.74-5.49L50.74-5.49Q52.33-6.43 53.87-7.61L53.87-7.61L53.87-29.68L58.59-29.68L58.59-3.84L58.59-3.84Q58.65-1.71 58.88 0L58.88 0L54.22 0.47" fill="#e4d8eb" stroke="none" stroke-width="none" transform="translate(-75.16500854492188,17.942967478434248)" style="fill: rgb(228, 216, 235);"></path></g><g class="path" style="transform-origin: -0.795013px 2.80368px; transform: scale(0.91); animation: 0.699301s linear -0.230769s infinite normal forwards running breath-304ad4a9-476c-4aef-992b-be6fb12e7c13;"><path d="M67.20 0L67.20-24.90L67.20-24.90Q67.20-26.26 66.91-29.15L66.91-29.15L71.27-29.74L71.74-25.43L71.80-25.43L71.80-25.43Q72.87-26.79 73.87-27.79L73.87-27.79L73.87-27.79Q74.87-28.79 75.96-29.53L75.96-29.53L75.96-29.53Q77.05-30.27 78.06-30.27L78.06-30.27L78.06-30.27Q79.41-30.33 81.83-29.97L81.83-29.97L80.77-25.43L80.77-25.43Q78.82-25.78 78.06-25.72L78.06-25.72L78.06-25.72Q77.05-25.72 75.93-24.78L75.93-24.78L75.93-24.78Q74.81-23.84 73.99-22.77L73.99-22.77L73.99-22.77Q72.92-21.48 71.92-19.82L71.92-19.82L71.92 0L67.20 0" fill="#e4d8eb" stroke="none" stroke-width="none" transform="translate(-75.16500854492188,17.942967478434248)" style="fill: rgb(228, 216, 235);"></path></g><g class="path" style="transform-origin: 24.22px 9.53297px; transform: scale(0.91); animation: 0.699301s linear -0.153846s infinite normal forwards running breath-304ad4a9-476c-4aef-992b-be6fb12e7c13;"><path d="M87.08 13.45L87.08-22.83L87.08-22.83Q87.08-24.96 86.79-29.15L86.79-29.15L91.16-29.74L91.69-26.55L91.69-26.55Q92.87-27.55 94.13-28.35L94.13-28.35L94.13-28.35Q95.40-29.15 96.91-29.71L96.91-29.71L96.91-29.71Q98.41-30.27 100.12-30.27L100.12-30.27L100.12-30.27Q102.54-30.27 104.70-29.44L104.70-29.44L104.70-29.44Q106.85-28.62 108.47-26.79L108.47-26.79L108.47-26.79Q110.09-24.96 111.04-22.04L111.04-22.04L111.04-22.04Q111.98-19.12 111.98-14.87L111.98-14.87L111.98-14.87Q111.98-10.56 110.71-7.58L110.71-7.58L110.71-7.58Q109.45-4.60 107.41-2.74L107.41-2.74L107.41-2.74Q105.37-0.89 102.81-0.06L102.81-0.06L102.81-0.06Q100.24 0.77 97.59 0.77L97.59 0.77L97.59 0.77Q94.75 0.71 91.80 0.06L91.80 0.06L91.80 12.86L87.08 13.45zM97.59-3.36L97.59-3.36L97.59-3.36Q100.06-3.36 101.83-4.25L101.83-4.25L101.83-4.25Q103.60-5.13 104.75-6.70L104.75-6.70L104.75-6.70Q105.91-8.26 106.44-10.30L106.44-10.30L106.44-10.30Q106.97-12.33 106.97-14.63L106.97-14.63L106.97-14.63Q106.97-16.70 106.58-18.76L106.58-18.76L106.58-18.76Q106.20-20.83 105.34-22.45L105.34-22.45L105.34-22.45Q104.49-24.07 103.07-25.10L103.07-25.10L103.07-25.10Q101.66-26.14 99.59-26.14L99.59-26.14L99.59-26.14Q98.06-26.14 96.70-25.58L96.70-25.58L96.70-25.58Q95.34-25.02 94.13-24.22L94.13-24.22L94.13-24.22Q92.93-23.42 91.80-22.42L91.80-22.42L91.80-4.31L91.80-4.31Q92.45-4.07 93.25-3.86L93.25-3.86L93.25-3.86Q94.05-3.66 95.14-3.51L95.14-3.51L95.14-3.51Q96.23-3.36 97.59-3.36" fill="#e4d8eb" stroke="none" stroke-width="none" transform="translate(-75.16500854492188,17.942967478434248)" style="fill: rgb(228, 216, 235);"></path></g><g class="path" style="transform-origin: 46.085px -4.41704px; transform: scale(0.91); animation: 0.699301s linear -0.0769231s infinite normal forwards running breath-304ad4a9-476c-4aef-992b-be6fb12e7c13;"><path d="M118.89 0L118.89-44.19L123.61-44.72L123.61 0L118.89 0" fill="#e4d8eb" stroke="none" stroke-width="none" transform="translate(-75.16500854492188,17.942967478434248)" style="fill: rgb(228, 216, 235);"></path></g><g class="path" style="transform-origin: 67.82px 3.19297px; transform: scale(0.91); animation: 0.699301s linear 0s infinite normal forwards running breath-304ad4a9-476c-4aef-992b-be6fb12e7c13;"><path d="M153.16-4.66L154.05-0.71L154.05-0.71Q152.69-0.30 151.25 0L151.25 0L151.25 0Q149.80 0.30 148.06 0.53L148.06 0.53L148.06 0.53Q146.32 0.77 144.43 0.77L144.43 0.77L144.43 0.77Q141.48 0.77 138.95-0.06L138.95-0.06L138.95-0.06Q136.41-0.89 134.52-2.71L134.52-2.71L134.52-2.71Q132.63-4.54 131.54-7.46L131.54-7.46L131.54-7.46Q130.45-10.38 130.45-14.63L130.45-14.63L130.45-14.63Q130.45-18.47 131.51-21.39L131.51-21.39L131.51-21.39Q132.57-24.31 134.43-26.28L134.43-26.28L134.43-26.28Q136.29-28.26 138.80-29.26L138.80-29.26L138.80-29.26Q141.31-30.27 144.25-30.27L144.25-30.27L144.25-30.27Q147.15-30.27 149.27-29.15L149.27-29.15L149.27-29.15Q151.39-28.03 152.78-26.11L152.78-26.11L152.78-26.11Q154.17-24.19 154.85-21.62L154.85-21.62L154.85-21.62Q155.52-19.06 155.52-16.23L155.52-16.23L154.64-13.63L135.58-13.63L135.58-13.63Q135.58-11.80 136.05-9.97L136.05-9.97L136.05-9.97Q136.53-8.14 137.68-6.67L137.68-6.67L137.68-6.67Q138.83-5.19 140.69-4.28L140.69-4.28L140.69-4.28Q142.54-3.36 145.32-3.36L145.32-3.36L145.32-3.36Q147.09-3.36 148.56-3.57L148.56-3.57L148.56-3.57Q150.04-3.78 151.13-4.04L151.13-4.04L151.13-4.04Q152.22-4.31 153.16-4.66L153.16-4.66zM135.76-17.41L150.63-17.41L150.63-17.41Q150.63-17.82 150.45-19.23L150.45-19.23L150.45-19.23Q150.27-20.65 149.62-22.18L149.62-22.18L149.62-22.18Q148.98-23.72 147.62-24.93L147.62-24.93L147.62-24.93Q146.26-26.14 144.02-26.14L144.02-26.14L144.02-26.14Q141.54-26.14 139.95-25.10L139.95-25.10L139.95-25.10Q138.36-24.07 137.41-22.66L137.41-22.66L137.41-22.66Q136.47-21.24 136.11-19.77L136.11-19.77L136.11-19.77Q135.76-18.29 135.76-17.41L135.76-17.41" fill="#e4d8eb" stroke="none" stroke-width="none" transform="translate(-75.16500854492188,17.942967478434248)" style="fill: rgb(228, 216, 235);"></path></g></g>
</g>
<style id="breath-304ad4a9-476c-4aef-992b-be6fb12e7c13" data-anikit="">@keyframes breath-304ad4a9-476c-4aef-992b-be6fb12e7c13
{
  0% {
    animation-timing-function: cubic-bezier(0.9647,0.2413,-0.0705,0.7911);
    transform: scale(0.9099999999999999);
  }
  51% {
    animation-timing-function: cubic-bezier(0.9226,0.2631,-0.0308,0.7628);
    transform: scale(1.02994);
  }
  100% {
    transform: scale(0.9099999999999999);
  }
}</style><style id="breath-304ad4a9-476c-4aef-992b-be6fb12e7c13" data-anikit="">@keyframes breath-304ad4a9-476c-4aef-992b-be6fb12e7c13
{
  0% {
    animation-timing-function: cubic-bezier(0.9647,0.2413,-0.0705,0.7911);
    transform: scale(0.9099999999999999);
  }
  51% {
    animation-timing-function: cubic-bezier(0.9226,0.2631,-0.0308,0.7628);
    transform: scale(1.02994);
  }
  100% {
    transform: scale(0.9099999999999999);
  }
}</style></svg>