<?xml version="1.0" encoding="utf-8"?>
<svg xmlns="http://www.w3.org/2000/svg" style="margin: auto; background: rgb(214, 46, 46); display: block; shape-rendering: auto;" width="113" height="110" preserveAspectRatio="xMidYMid">
<style type="text/css">
  text {
    text-anchor: middle; font-size: 59px; opacity: 0;
  }
</style>
<g transform="translate(56.5,55)">
  <g transform="translate(-5,4)"><g class="path" style="transform-origin: -23.275px -2.93134px; transform: scale(0.91); animation: 1.16279s linear -0.511628s infinite normal forwards running breath-2e0e538c-99d5-4431-9139-8c834ae4274f;"><path d="M5.19 0L5.19-40.24L15.10-40.24L15.10-40.24Q18.35-40.24 21.03-39.68L21.03-39.68L21.03-39.68Q23.72-39.12 25.61-37.79L25.61-37.79L25.61-37.79Q27.49-36.46 28.50-34.28L28.50-34.28L28.50-34.28Q29.50-32.10 29.50-28.79L29.50-28.79L29.50-28.79Q29.44-25.13 28.26-22.86L28.26-22.86L28.26-22.86Q27.08-20.59 25.37-19.20L25.37-19.20L25.37-19.20Q23.66-17.82 21.42-17.17L21.42-17.17L21.42-17.05L21.42-17.05Q21.65-16.82 22.15-16.20L22.15-16.20L22.15-16.20Q22.66-15.58 23.01-15.10L23.01-15.10L34.40 0L28.56 0L16.87-15.99L10.15-15.99L10.15 0L5.19 0zM24.49-27.97L24.49-27.97L24.49-27.97Q24.49-30.44 23.87-32.01L23.87-32.01L23.87-32.01Q23.25-33.57 22.04-34.40L22.04-34.40L22.04-34.40Q20.83-35.22 19.06-35.52L19.06-35.52L19.06-35.52Q17.29-35.81 15.05-35.81L15.05-35.81L10.15-35.81L10.15-20.41L15.99-20.41L15.99-20.41Q18.29-20.41 19.88-21.00L19.88-21.00L19.88-21.00Q21.48-21.59 22.48-22.63L22.48-22.63L22.48-22.63Q23.48-23.66 23.95-25.02L23.95-25.02L23.95-25.02Q24.43-26.37 24.49-27.97" fill="#eeeeee" stroke="none" stroke-width="none" transform="translate(-43.07000732421875,17.188668212890626)" style="fill: rgb(238, 238, 238);"></path></g><g class="path" style="transform-origin: 5.69498px 2.43867px; transform: scale(0.91); animation: 1.16279s linear -0.255814s infinite normal forwards running breath-2e0e538c-99d5-4431-9139-8c834ae4274f;"><path d="M58.94-4.66L59.83-0.71L59.83-0.71Q58.47-0.30 57.02 0L57.02 0L57.02 0Q55.58 0.30 53.84 0.53L53.84 0.53L53.84 0.53Q52.10 0.77 50.21 0.77L50.21 0.77L50.21 0.77Q47.26 0.77 44.72-0.06L44.72-0.06L44.72-0.06Q42.19-0.89 40.30-2.71L40.30-2.71L40.30-2.71Q38.41-4.54 37.32-7.46L37.32-7.46L37.32-7.46Q36.23-10.38 36.23-14.63L36.23-14.63L36.23-14.63Q36.23-18.47 37.29-21.39L37.29-21.39L37.29-21.39Q38.35-24.31 40.21-26.28L40.21-26.28L40.21-26.28Q42.07-28.26 44.57-29.26L44.57-29.26L44.57-29.26Q47.08-30.27 50.03-30.27L50.03-30.27L50.03-30.27Q52.92-30.27 55.05-29.15L55.05-29.15L55.05-29.15Q57.17-28.03 58.56-26.11L58.56-26.11L58.56-26.11Q59.94-24.19 60.62-21.62L60.62-21.62L60.62-21.62Q61.30-19.06 61.30-16.23L61.30-16.23L60.42-13.63L41.36-13.63L41.36-13.63Q41.36-11.80 41.83-9.97L41.83-9.97L41.83-9.97Q42.30-8.14 43.45-6.67L43.45-6.67L43.45-6.67Q44.60-5.19 46.46-4.28L46.46-4.28L46.46-4.28Q48.32-3.36 51.09-3.36L51.09-3.36L51.09-3.36Q52.86-3.36 54.34-3.57L54.34-3.57L54.34-3.57Q55.81-3.78 56.91-4.04L56.91-4.04L56.91-4.04Q58.00-4.31 58.94-4.66L58.94-4.66zM41.54-17.41L56.40-17.41L56.40-17.41Q56.40-17.82 56.23-19.23L56.23-19.23L56.23-19.23Q56.05-20.65 55.40-22.18L55.40-22.18L55.40-22.18Q54.75-23.72 53.40-24.93L53.40-24.93L53.40-24.93Q52.04-26.14 49.80-26.14L49.80-26.14L49.80-26.14Q47.32-26.14 45.73-25.10L45.73-25.10L45.73-25.10Q44.13-24.07 43.19-22.66L43.19-22.66L43.19-22.66Q42.24-21.24 41.89-19.77L41.89-19.77L41.89-19.77Q41.54-18.29 41.54-17.41L41.54-17.41" fill="#eeeeee" stroke="none" stroke-width="none" transform="translate(-43.07000732421875,17.188668212890626)" style="fill: rgb(238, 238, 238);"></path></g><g class="path" style="transform-origin: 35.665px -4.78634px; transform: scale(0.91); animation: 1.16279s linear 0s infinite normal forwards running breath-2e0e538c-99d5-4431-9139-8c834ae4274f;"><path d="M86.26-6.49L86.26-25.25L86.26-25.25Q84.13-25.84 82.95-25.99L82.95-25.99L82.95-25.99Q81.77-26.14 80.54-26.14L80.54-26.14L80.54-26.14Q78.06-26.14 76.29-25.25L76.29-25.25L76.29-25.25Q74.52-24.37 73.37-22.80L73.37-22.80L73.37-22.80Q72.22-21.24 71.69-19.20L71.69-19.20L71.69-19.20Q71.15-17.17 71.15-14.87L71.15-14.87L71.15-14.87Q71.15-12.80 71.60-10.74L71.60-10.74L71.60-10.74Q72.04-8.67 72.98-7.02L72.98-7.02L72.98-7.02Q73.93-5.37 75.28-4.37L75.28-4.37L75.28-4.37Q76.64-3.36 78.53-3.36L78.53-3.36L78.53-3.36Q79.83-3.36 81.21-3.84L81.21-3.84L81.21-3.84Q82.60-4.31 83.78-4.93L83.78-4.93L83.78-4.93Q84.96-5.55 86.26-6.49L86.26-6.49zM86.79 0.47L86.32-2.36L86.32-2.36Q84.96-1.42 83.69-0.80L83.69-0.80L83.69-0.80Q82.42-0.18 80.92 0.30L80.92 0.30L80.92 0.30Q79.41 0.77 78.00 0.77L78.00 0.77L78.00 0.77Q72.45 0.77 69.30-3.16L69.30-3.16L69.30-3.16Q66.14-7.08 66.14-14.63L66.14-14.63L66.14-14.63Q66.14-19.12 67.58-22.13L67.58-22.13L67.58-22.13Q69.03-25.13 71.21-26.93L71.21-26.93L71.21-26.93Q73.40-28.73 75.90-29.50L75.90-29.50L75.90-29.50Q78.41-30.27 80.54-30.27L80.54-30.27L80.54-30.27Q81.60-30.27 82.78-30.12L82.78-30.12L82.78-30.12Q83.96-29.97 86.26-29.38L86.26-29.38L86.26-44.19L90.98-44.72L90.98-5.37L90.98-5.37Q90.98-4.54 91.01-3.63L91.01-3.63L91.01-3.63Q91.04-2.71 91.13-1.83L91.13-1.83L91.13-1.83Q91.21-0.94 91.33 0L91.33 0L86.79 0.47" fill="#eeeeee" stroke="none" stroke-width="none" transform="translate(-43.07000732421875,17.188668212890626)" style="fill: rgb(238, 238, 238);"></path></g></g>
</g>
<style id="breath-2e0e538c-99d5-4431-9139-8c834ae4274f" data-anikit="">@keyframes breath-2e0e538c-99d5-4431-9139-8c834ae4274f
{
  0% {
    animation-timing-function: cubic-bezier(0.9647,0.2413,-0.0705,0.7911);
    transform: scale(0.9099999999999999);
  }
  51% {
    animation-timing-function: cubic-bezier(0.9226,0.2631,-0.0308,0.7628);
    transform: scale(1.02994);
  }
  100% {
    transform: scale(0.9099999999999999);
  }
}</style><style id="breath-2e0e538c-99d5-4431-9139-8c834ae4274f" data-anikit="">@keyframes breath-2e0e538c-99d5-4431-9139-8c834ae4274f
{
  0% {
    animation-timing-function: cubic-bezier(0.9647,0.2413,-0.0705,0.7911);
    transform: scale(0.9099999999999999);
  }
  51% {
    animation-timing-function: cubic-bezier(0.9226,0.2631,-0.0308,0.7628);
    transform: scale(1.02994);
  }
  100% {
    transform: scale(0.9099999999999999);
  }
}</style></svg>